<svg aria-hidden="true" style="position:absolute;width:0;height:0;overflow:hidden" xmlns="http://www.w3.org/2000/svg">
  <defs>
    <symbol id="icon-arrow-up" viewBox="0 0 42 42"> 
      <!-- <rect x="-0.5" y="0.5" width="41" height="41" rx="20.5" transform="matrix(1 0 0 -1 1 42)" stroke="#FAFAFA" stroke-opacity="0.2"/> -->
      <path d="M26 23.5L21 18.5L16 23.5" stroke="#FAFAFA" stroke-width="2"/>
    </symbol>
    <!-- <symbol id="icon-arrow-down" viewBox="0 0 42 42">
      <rect x="0.5" y="0.5" width="41" height="41" rx="20.5" stroke="#FAFAFA" stroke-opacity="0.2"/>
      <path d="M26 18.5L21 23.5L16 18.5" stroke="#FAFAFA" stroke-width="2"/>
    </symbol> -->
    <symbol id="icon-arrow-left" viewBox="0 0 68 68">
      <rect x="67.5" y="67.5" width="67" height="67" rx="33.5" transform="rotate(180 67.5 67.5)" stroke="#FAFAFA" stroke-opacity="0.2"/>
      <path d="M44.6667 34H23.3334" stroke="#3B3B3B" stroke-width="2" stroke-linecap="round" stroke-linejoin="round"/>
      <path d="M23.3334 34L31.3333 26" stroke="#3B3B3B" stroke-width="2" stroke-linecap="round" stroke-linejoin="round"/>
      <path d="M23.3334 34L31.3333 42" stroke="#3B3B3B" stroke-width="2" stroke-linecap="round" stroke-linejoin="round"/>
      <!-- <path d="M31.3333 42L23.3333 34L31.3333 26" stroke="#3B3B3B" stroke-width="2" stroke-linecap="round" stroke-linejoin="round"/> -->
    </symbol>
    <symbol id="icon-arrow-right" viewBox="0 0 68 68">
      <rect x="0.5" y="0.5" width="67" height="67" rx="33.5" stroke="#FAFAFA" stroke-opacity="0.5"/>
      <path d="M23.3333 34H44.6666" stroke="#FAFAFA" stroke-width="2" stroke-linecap="round" stroke-linejoin="round"/>
      <path d="M44.6666 34L36.6667 26" stroke="#FAFAFA" stroke-width="2" stroke-linecap="round" stroke-linejoin="round"/>
      <path d="M44.6666 34L36.6667 42" stroke="#FAFAFA" stroke-width="2" stroke-linecap="round" stroke-linejoin="round"/>
      <!-- <path d="M36.6667 26L44.6667 34L36.6667 42" stroke="#FAFAFA" stroke-width="2" stroke-linecap="round" stroke-linejoin="round"/> -->
    </symbol>
    <symbol id="icon-services-1" viewBox="0 0 48 48">
      <rect width="48" height="48" rx="10" fill="#ED3B44"/>
      <path d="M32 33C32 31.6044 32 30.9067 31.8278 30.3389C31.44 29.0605 30.4395 28.06 29.1611 27.6722C28.5933 27.5 27.8956 27.5 26.5 27.5H21.5C20.1044 27.5 19.4067 27.5 18.8389 27.6722C17.5605 28.06 16.56 29.0605 16.1722 30.3389C16 30.9067 16 31.6044 16 33" stroke="#FAFAFA" stroke-width="2" stroke-linecap="round" stroke-linejoin="round"/>
      <path d="M24 24C26.4853 24 28.5 21.9853 28.5 19.5C28.5 17.0147 26.4853 15 24 15C21.5147 15 19.5 17.0147 19.5 19.5C19.5 21.9853 21.5147 24 24 24Z" stroke="#FAFAFA" stroke-width="2" stroke-linecap="round" stroke-linejoin="round"/>
    </symbol>
    <symbol id="icon-services-2" viewBox="0 0 48 48">
      <rect width="48" height="48" rx="10" fill="#ED3B44"/>
      <path d="M18.0944 23.2288C18.0322 22.8282 18 22.4179 18 22C18 17.5817 21.6052 14 26.0526 14C30.4999 14 34.1052 17.5817 34.1052 22C34.1052 22.9981 33.9213 23.9535 33.5852 24.8345C33.5154 25.0175 33.4804 25.109 33.4646 25.1804C33.4489 25.2512 33.4428 25.301 33.4411 25.3735C33.4394 25.4466 33.4493 25.5272 33.4692 25.6883L33.8717 28.9585C33.9153 29.3125 33.9371 29.4895 33.8782 29.6182C33.8266 29.731 33.735 29.8205 33.6211 29.8695C33.4911 29.9254 33.3146 29.8995 32.9617 29.8478L29.7765 29.3809C29.6101 29.3565 29.527 29.3443 29.4512 29.3448C29.3763 29.3452 29.3245 29.3507 29.2511 29.3661C29.177 29.3817 29.0823 29.4172 28.893 29.4881C28.0097 29.819 27.0524 30 26.0526 30C25.6344 30 25.2237 29.9683 24.8227 29.9073M19.6316 34C22.5965 34 25 31.5376 25 28.5C25 25.4624 22.5965 23 19.6316 23C16.6667 23 14.2632 25.4624 14.2632 28.5C14.2632 29.1106 14.3603 29.6979 14.5395 30.2467C14.6153 30.4787 14.6532 30.5947 14.6657 30.6739C14.6786 30.7567 14.6809 30.8031 14.6761 30.8867C14.6714 30.9668 14.6514 31.0573 14.6113 31.2383L14 34L16.9948 33.591C17.1583 33.5687 17.24 33.5575 17.3114 33.558C17.3865 33.5585 17.4264 33.5626 17.5001 33.5773C17.5701 33.5912 17.6742 33.6279 17.8823 33.7014C18.4306 33.8949 19.0191 34 19.6316 34Z" stroke="#FAFAFA" stroke-width="2" stroke-linecap="round" stroke-linejoin="round"/>
    </symbol>
    <symbol id="icon-services-3" viewBox="0 0 48 48">
      <rect width="48" height="48" rx="10" fill="#ED3B44"/>
      <path d="M24.7778 27L21 23.2222" stroke="#FAFAFA" stroke-width="2" stroke-linecap="round" stroke-linejoin="round"/>
      <path d="M14 34C16 34 18.608 34.3417 19.9748 32.9749C21.3417 31.608 21.3417 29.392 19.9748 28.0251C18.608 26.6583 16.3919 26.6583 15.0251 28.0251C13.6583 29.392 15.0251 32 14 34Z" stroke="#FAFAFA" stroke-width="2" stroke-linecap="round" stroke-linejoin="round"/>
      <path d="M19.9999 28C19.5085 27.5086 19.2628 27.2629 19.1239 27.0056C18.7908 26.3885 18.8051 25.6421 19.1617 25.0384C19.3104 24.7866 19.5654 24.5505 20.0753 24.0783L29.9434 14.9412C30.8126 14.1365 32.1624 14.1624 32.9999 15C33.8375 15.8376 33.8635 17.1874 33.0587 18.0565L23.9216 27.9246C23.4494 28.4345 23.2134 28.6895 22.9616 28.8382C22.3578 29.1948 21.6114 29.2091 20.9944 28.876C20.7371 28.7371 20.4914 28.4914 19.9999 28Z" stroke="#FAFAFA" stroke-width="2" stroke-linecap="round" stroke-linejoin="round"/>
    </symbol>
    <symbol id="icon-services-4" viewBox="0 0 48 48">
      <rect width="48" height="48" rx="10" fill="#ED3B44"/>
      <path d="M30.1626 14H17.8374C17.3749 14 17 14.3749 17 14.8374C17 17.5027 18.0588 20.0588 19.9434 21.9434L21.1626 23.1626C21.2836 23.2836 21.3442 23.3442 21.3875 23.4023C21.6519 23.7569 21.6519 24.2431 21.3875 24.5977C21.3442 24.6558 21.2836 24.7164 21.1626 24.8374L19.9434 26.0566C18.0588 27.9412 17 30.4973 17 33.1626C17 33.6251 17.3749 34 17.8374 34H30.1626C30.6251 34 31 33.6251 31 33.1626C31 30.4973 29.9412 27.9412 28.0566 26.0566L26.8374 24.8374C26.7164 24.7164 26.6558 24.6558 26.6125 24.5977C26.3481 24.2431 26.3481 23.7569 26.6125 23.4023C26.6558 23.3442 26.7164 23.2836 26.8374 23.1626L28.0566 21.9434C29.9412 20.0588 31 17.5027 31 14.8374C31 14.3749 30.6251 14 30.1626 14Z" stroke="#FAFAFA" stroke-width="2" stroke-linecap="round" stroke-linejoin="round"/>
    </symbol>
  </defs>
</svg>